# xmcd
#
# Track frame offsets: 
#        150
#        15647
#        28107
#        40712
#        52440
#        65032
#        79180
#        92965
#        103975
#        118885
#        128667
#        143812
#
# Disc length: 2065 seconds
#
# Revision: 3
# Processed by: cddbd v1.5.2PL0 Copyright (c) Steve Scherf et al.
# Submitted via: ExactAudioCopy v1.0b3
#
DISCID=b1080f0c
DTITLE=Alfred Hause - 碧空
DYEAR=1900
DGENRE=Easy Listening
TTITLE0=碧空
TTITLE1=オレ・グァッパ
TTITLE2=バラのタンゴ
TTITLE3=ジェラシー
TTITLE4=ブルー・タンゴ
TTITLE5=カプリ島
TTITLE6=小雨降る径
TTITLE7=奥様お手をどうぞ
TTITLE8=真珠採りのタンゴ
TTITLE9=小さな喫茶店
TTITLE10=夜のタンゴ
TTITLE11=ラ・クンパルシータ
EXTD=
EXTT0=
EXTT1=
EXTT2=
EXTT3=
EXTT4=
EXTT5=
EXTT6=
EXTT7=
EXTT8=
EXTT9=
EXTT10=
EXTT11=
PLAYORDER=
